<svg aria-hidden="true" style="position: absolute; width: 0; height: 0; overflow: hidden;" version="1.1" xmlns="http://www.w3.org/2000/svg" xmlns:xlink="http://www.w3.org/1999/xlink">
<defs>
<symbol id="icon-cross" viewBox="0 0 32 32">
<path fill="none" stroke="#407bff" style="stroke: var(--color1, #407bff)" stroke-linejoin="round" stroke-linecap="round" stroke-miterlimit="4" stroke-width="2" d="M8 24l16-16M8 8l16 16"></path>
</symbol>
<symbol id="icon-decrement" viewBox="0 0 32 32">
<path fill="#407bff" style="fill: var(--color1, #407bff)" d="M7 16c0-0.265 0.105-0.52 0.293-0.707s0.442-0.293 0.707-0.293h16c0.265 0 0.52 0.105 0.707 0.293s0.293 0.442 0.293 0.707-0.105 0.52-0.293 0.707c-0.187 0.188-0.442 0.293-0.707 0.293h-16c-0.265 0-0.52-0.105-0.707-0.293s-0.293-0.442-0.293-0.707z"></path>
</symbol>
<symbol id="icon-increment" viewBox="0 0 32 32">
<path fill="#407bff" style="fill: var(--color1, #407bff)" d="M16 7c0.265 0 0.52 0.105 0.707 0.293s0.293 0.442 0.293 0.707v7h7c0.265 0 0.52 0.105 0.707 0.293s0.293 0.442 0.293 0.707-0.105 0.52-0.293 0.707c-0.187 0.188-0.442 0.293-0.707 0.293h-7v7c0 0.265-0.105 0.52-0.293 0.707s-0.442 0.293-0.707 0.293-0.52-0.105-0.707-0.293c-0.188-0.187-0.293-0.442-0.293-0.707v-7h-7c-0.265 0-0.52-0.105-0.707-0.293s-0.293-0.442-0.293-0.707 0.105-0.52 0.293-0.707c0.188-0.188 0.442-0.293 0.707-0.293h7v-7c0-0.265 0.105-0.52 0.293-0.707s0.442-0.293 0.707-0.293z"></path>
</symbol>
<symbol id="icon-glass" viewBox="0 0 32 32">
<path fill="#407bff" style="fill: var(--color1, #407bff)" d="M5.565 2.783l1.901 26.363v0.072h16.367l1.901-26.353v-0.082h-20.169zM23.16 28.479h-15.017l-1.426-19.747h0.784l1.289 17.403c0.008 0.092 0.049 0.177 0.115 0.24s0.153 0.098 0.244 0.099h0.030c0.047-0.003 0.093-0.016 0.136-0.037s0.080-0.051 0.111-0.087c0.031-0.036 0.055-0.078 0.070-0.124s0.021-0.094 0.017-0.141l-1.289-17.351h16.362l-1.426 19.747zM24.637 7.994h-16.468l-0.283-3.847c-0.009-0.094-0.052-0.181-0.122-0.244s-0.16-0.097-0.252-0.095c-0.095 0.009-0.183 0.055-0.245 0.129s-0.094 0.169-0.088 0.266l0.283 3.795h-0.794l-0.324-4.483h18.617l-0.324 4.478z"></path>
<path fill="#407bff" style="fill: var(--color1, #407bff)" d="M11.359 12.384c0.236 0 0.467-0.071 0.663-0.204s0.349-0.322 0.439-0.543 0.114-0.465 0.068-0.699c-0.046-0.235-0.16-0.45-0.327-0.62s-0.379-0.285-0.611-0.331c-0.231-0.047-0.471-0.023-0.689 0.069s-0.404 0.247-0.536 0.446c-0.131 0.199-0.201 0.433-0.201 0.673 0 0.321 0.126 0.629 0.35 0.856s0.527 0.354 0.844 0.354zM11.359 10.697c0.093 0 0.184 0.028 0.261 0.080s0.138 0.127 0.173 0.214c0.036 0.087 0.045 0.183 0.027 0.276s-0.063 0.178-0.129 0.244c-0.066 0.067-0.15 0.112-0.241 0.131s-0.186 0.009-0.272-0.027c-0.086-0.036-0.159-0.097-0.211-0.176s-0.079-0.171-0.079-0.265c0-0.127 0.050-0.248 0.138-0.337s0.208-0.14 0.332-0.14z"></path>
<path fill="#407bff" style="fill: var(--color1, #407bff)" d="M11.354 16.318c0.003 0.239 0.076 0.472 0.209 0.669s0.321 0.35 0.539 0.439c0.219 0.089 0.458 0.111 0.689 0.062s0.442-0.166 0.607-0.336c0.165-0.17 0.277-0.387 0.321-0.621s0.019-0.477-0.072-0.698c-0.092-0.22-0.245-0.408-0.442-0.54s-0.427-0.201-0.663-0.2c-0.158 0.001-0.313 0.033-0.459 0.095s-0.277 0.153-0.387 0.267c-0.11 0.114-0.197 0.249-0.256 0.397s-0.088 0.307-0.086 0.467zM13.013 16.318c0 0.094-0.028 0.187-0.079 0.265s-0.125 0.14-0.211 0.176-0.18 0.046-0.272 0.027c-0.091-0.018-0.175-0.064-0.241-0.131s-0.111-0.152-0.129-0.244-0.009-0.188 0.027-0.276c0.036-0.087 0.096-0.162 0.173-0.214s0.168-0.080 0.261-0.080c0.125 0 0.244 0.050 0.332 0.14s0.138 0.211 0.138 0.337z"></path>
<path fill="#407bff" style="fill: var(--color1, #407bff)" d="M19.833 16.349c0.236 0 0.467-0.071 0.663-0.204s0.349-0.322 0.439-0.543 0.114-0.465 0.068-0.699c-0.046-0.235-0.16-0.45-0.327-0.62s-0.379-0.285-0.611-0.331c-0.231-0.047-0.471-0.023-0.689 0.069s-0.404 0.247-0.536 0.446c-0.131 0.199-0.201 0.433-0.201 0.673 0 0.321 0.126 0.629 0.349 0.856s0.527 0.354 0.844 0.354zM19.833 14.666c0.093 0 0.184 0.028 0.262 0.081s0.138 0.127 0.173 0.215c0.035 0.087 0.044 0.184 0.026 0.276s-0.064 0.178-0.13 0.244c-0.066 0.066-0.151 0.111-0.242 0.129s-0.186 0.008-0.272-0.029-0.159-0.099-0.21-0.178c-0.051-0.079-0.078-0.172-0.077-0.266 0.001-0.126 0.051-0.246 0.14-0.334s0.207-0.138 0.331-0.138z"></path>
<path fill="#407bff" style="fill: var(--color1, #407bff)" d="M15.677 14.066c0.236 0 0.467-0.071 0.663-0.204s0.349-0.322 0.439-0.543c0.090-0.221 0.114-0.465 0.068-0.699s-0.16-0.45-0.326-0.62c-0.167-0.169-0.38-0.285-0.611-0.331s-0.471-0.023-0.689 0.069c-0.218 0.092-0.404 0.247-0.535 0.446s-0.201 0.433-0.201 0.672c0 0.321 0.126 0.629 0.35 0.856s0.527 0.355 0.844 0.355zM15.677 12.379c0.093 0 0.184 0.028 0.261 0.080s0.138 0.127 0.173 0.214c0.036 0.087 0.045 0.183 0.027 0.276s-0.063 0.178-0.129 0.244c-0.066 0.067-0.149 0.112-0.241 0.131s-0.186 0.009-0.272-0.027-0.159-0.097-0.211-0.176c-0.052-0.079-0.079-0.171-0.079-0.265-0.003-0.065 0.006-0.13 0.028-0.19s0.056-0.117 0.1-0.164c0.044-0.047 0.097-0.085 0.156-0.11s0.122-0.039 0.186-0.039v0.026z"></path>
<path fill="#407bff" style="fill: var(--color1, #407bff)" d="M13.402 20.929c0.005 0.197 0.067 0.387 0.178 0.549s0.267 0.285 0.448 0.357c0.181 0.072 0.378 0.088 0.567 0.047s0.363-0.139 0.498-0.279c0.135-0.141 0.227-0.319 0.263-0.512s0.015-0.393-0.060-0.574-0.202-0.336-0.363-0.445c-0.162-0.109-0.351-0.167-0.545-0.167-0.264 0.007-0.514 0.118-0.699 0.309s-0.287 0.449-0.287 0.716zM14.388 20.662c0.052 0 0.103 0.016 0.146 0.045s0.077 0.071 0.097 0.12 0.025 0.102 0.015 0.154c-0.010 0.052-0.035 0.099-0.072 0.137s-0.084 0.063-0.135 0.073c-0.051 0.010-0.104 0.005-0.152-0.015s-0.089-0.054-0.118-0.098c-0.029-0.044-0.044-0.095-0.044-0.148 0-0.071 0.028-0.139 0.077-0.189s0.116-0.078 0.186-0.078z"></path>
<path fill="#407bff" style="fill: var(--color1, #407bff)" d="M18.17 19.816c0.202 0.007 0.402-0.048 0.574-0.157s0.307-0.269 0.388-0.457c0.081-0.188 0.105-0.397 0.068-0.599s-0.133-0.388-0.276-0.534c-0.142-0.146-0.325-0.245-0.524-0.285s-0.405-0.018-0.591 0.063c-0.186 0.080-0.345 0.216-0.454 0.389s-0.166 0.375-0.161 0.58c0.006 0.262 0.111 0.511 0.292 0.697s0.426 0.295 0.684 0.304zM18.17 18.549c0.070 0 0.137 0.028 0.186 0.078s0.077 0.118 0.077 0.189-0.028 0.139-0.077 0.189c-0.049 0.050-0.116 0.078-0.186 0.078s-0.138-0.028-0.188-0.078-0.079-0.118-0.080-0.189c0-0.035 0.007-0.071 0.021-0.103s0.033-0.062 0.058-0.087c0.025-0.025 0.055-0.044 0.087-0.058s0.067-0.019 0.102-0.019z"></path>
<path fill="#407bff" style="fill: var(--color1, #407bff)" d="M20.253 11.538c0.2 0 0.395-0.060 0.562-0.173s0.296-0.273 0.372-0.46c0.077-0.187 0.097-0.394 0.058-0.593s-0.135-0.382-0.277-0.525-0.322-0.241-0.518-0.281c-0.196-0.040-0.399-0.019-0.584 0.058s-0.343 0.209-0.454 0.378-0.17 0.367-0.17 0.57c0 0.272 0.107 0.533 0.296 0.725s0.447 0.3 0.715 0.3zM20.253 10.271c0.039-0.011 0.080-0.013 0.12-0.006s0.078 0.024 0.11 0.049c0.032 0.025 0.059 0.057 0.077 0.094s0.028 0.078 0.028 0.119c0 0.041-0.009 0.082-0.028 0.119s-0.045 0.069-0.077 0.094c-0.033 0.025-0.070 0.042-0.11 0.049s-0.081 0.006-0.12-0.006c-0.039 0.011-0.080 0.013-0.12 0.006s-0.078-0.024-0.11-0.049c-0.032-0.025-0.059-0.057-0.077-0.094s-0.028-0.078-0.028-0.119c0-0.041 0.009-0.082 0.028-0.119s0.045-0.069 0.077-0.094c0.033-0.025 0.070-0.042 0.11-0.049s0.081-0.005 0.12 0.006z"></path>
<path fill="#407bff" style="fill: var(--color1, #407bff)" d="M10.368 27.191c-0.045 0.021-0.086 0.052-0.119 0.089s-0.059 0.082-0.074 0.13c-0.016 0.048-0.021 0.099-0.017 0.149s0.019 0.099 0.043 0.144c0.031 0.060 0.078 0.11 0.135 0.145s0.122 0.054 0.189 0.055c0.056 0.002 0.112-0.011 0.162-0.036 1.545-0.803 3.255-1.225 4.99-1.231 1.837 0.027 3.648 0.441 5.319 1.216 0.066 0.035 0.141 0.049 0.215 0.039s0.143-0.042 0.198-0.093c0.055-0.051 0.093-0.118 0.11-0.192s0.010-0.151-0.018-0.221c-0.036-0.091-0.104-0.164-0.192-0.205-1.769-0.821-3.687-1.258-5.633-1.282-1.845 0.002-3.664 0.444-5.309 1.292z"></path>
</symbol>
<symbol id="icon-delete" viewBox="0 0 32 32">
<path fill="none" stroke="#ef5050" style="stroke: var(--color1, #ef5050)" stroke-linejoin="round" stroke-linecap="round" stroke-miterlimit="4" stroke-width="2" d="M19.653 12l-0.461 12M12.808 24l-0.461-12M25.637 7.72c0.456 0.069 0.909 0.143 1.363 0.221M25.637 7.72l-1.424 18.511c-0.058 0.754-0.399 1.458-0.953 1.971s-1.283 0.799-2.039 0.798h-10.443c-0.756 0-1.484-0.285-2.039-0.798s-0.895-1.217-0.953-1.971l-1.424-18.511M25.637 7.72c-1.539-0.233-3.086-0.409-4.637-0.529M6.363 7.72c-0.456 0.068-0.909 0.141-1.363 0.22M6.363 7.72c1.539-0.233 3.086-0.409 4.637-0.529M21 7.191v-1.221c0-1.573-1.213-2.885-2.787-2.935-1.475-0.047-2.951-0.047-4.427 0-1.573 0.049-2.787 1.363-2.787 2.935v1.221M21 7.191c-3.328-0.257-6.672-0.257-10 0"></path>
</symbol>
<symbol id="icon-delete-hover" viewBox="0 0 32 32">
<path fill="#ef5050" style="fill: var(--color1, #ef5050)" d="M1 15h30c0.552 0 1 0.448 1 1s-0.448 1-1 1h-30c-0.552 0-1-0.448-1-1s0.448-1 1-1z"></path>
</symbol>
<symbol id="icon-edit" viewBox="0 0 32 32">
<path fill="none" stroke="#9ebbff" style="stroke: var(--color2, #9ebbff)" stroke-linejoin="round" stroke-linecap="round" stroke-miterlimit="4" stroke-width="2" d="M22.483 5.983l2.249-2.251c0.469-0.469 1.105-0.732 1.768-0.732s1.299 0.263 1.768 0.732c0.469 0.469 0.732 1.105 0.732 1.768s-0.263 1.299-0.732 1.768l-14.159 14.159c-0.705 0.705-1.574 1.222-2.529 1.507l-3.58 1.067 1.067-3.58c0.284-0.955 0.802-1.824 1.507-2.529l11.909-11.908zM22.483 5.983l3.517 3.517M24 18.667v6.333c0 0.796-0.316 1.559-0.879 2.121s-1.326 0.879-2.121 0.879h-14c-0.796 0-1.559-0.316-2.121-0.879s-0.879-1.326-0.879-2.121v-14c0-0.796 0.316-1.559 0.879-2.121s1.326-0.879 2.121-0.879h6.333"></path>
</symbol>
<symbol id="icon-edit-hover" viewBox="0 0 32 32">
<path fill="#9ebbff" style="fill: var(--color2, #9ebbff)" d="M1 15h30c0.552 0 1 0.448 1 1s-0.448 1-1 1h-30c-0.552 0-1-0.448-1-1s0.448-1 1-1z"></path>
</symbol>
<symbol id="icon-eye" viewBox="0 0 32 32">
<path fill="none" stroke="#407bff" style="stroke: var(--color3, #407bff)" stroke-linejoin="round" stroke-linecap="butt" stroke-miterlimit="4" stroke-width="2" d="M2.7 15.56c1.86-5.56 7.1-9.56 13.3-9.56 6.18 0 11.42 4 13.28 9.56 0.080 0.28 0.080 0.58 0 0.86-1.86 5.56-7.1 9.58-13.28 9.58-6.2 0-11.44-4.020-13.3-9.58-0.080-0.28-0.080-0.58 0-0.86z"></path>
<path fill="none" stroke="#407bff" style="stroke: var(--color3, #407bff)" stroke-linejoin="round" stroke-linecap="butt" stroke-miterlimit="4" stroke-width="2" d="M18.82 18.82c-0.76 0.74-1.76 1.18-2.82 1.18-1.080 0-2.080-0.44-2.84-1.18-0.74-0.76-1.16-1.76-1.16-2.82 0-1.080 0.42-2.080 1.16-2.84 0.76-0.74 1.76-1.16 2.84-1.16 1.060 0 2.060 0.42 2.82 1.16 0.74 0.76 1.18 1.76 1.18 2.84 0 1.060-0.44 2.060-1.18 2.82z"></path>
</symbol>
<symbol id="icon-eye-slash" viewBox="0 0 32 32">
<path fill="none" stroke="#407bff" style="stroke: var(--color3, #407bff)" stroke-linejoin="round" stroke-linecap="round" stroke-miterlimit="4" stroke-width="2" d="M5.3 10.96c-1.26 1.46-2.18 3.18-2.74 5.040 1.74 5.78 7.080 10 13.44 10 1.32 0 2.6-0.2 3.8-0.54M8.3 8.3c2.28-1.52 4.96-2.32 7.7-2.3 6.34 0 11.68 4.2 13.42 9.98-0.96 3.16-2.98 5.9-5.74 7.7M13.16 13.16l-9.16-9.16M13.16 13.16c0.38-0.36 0.82-0.66 1.3-0.86s1-0.3 1.54-0.3c0.52 0 1.040 0.1 1.52 0.3s0.92 0.5 1.3 0.86c0.38 0.38 0.66 0.82 0.86 1.3s0.32 1 0.32 1.54c0 0.52-0.12 1.040-0.32 1.52s-0.48 0.92-0.86 1.3l9.18 9.18M18.82 18.82l-5.66-5.66"></path>
</symbol>
<symbol id="icon-chevron-right" viewBox="0 0 32 32">
<path fill="#407bff" style="fill: var(--color3, #407bff)" d="M21.691 16.686c0.183-0.183 0.297-0.434 0.297-0.709 0-0.251-0.114-0.503-0.297-0.686l-9.989-10.011c-0.091-0.091-0.206-0.183-0.343-0.229-0.114-0.046-0.251-0.091-0.389-0.091-0.114 0-0.251 0.023-0.389 0.069-0.114 0.069-0.229 0.137-0.32 0.229s-0.183 0.206-0.229 0.343c-0.046 0.114-0.069 0.251-0.069 0.389s0.023 0.251 0.091 0.389c0.046 0.114 0.137 0.229 0.229 0.32l9.28 9.28-9.28 9.303c-0.091 0.091-0.183 0.206-0.229 0.32-0.069 0.137-0.091 0.251-0.091 0.389s0.023 0.274 0.069 0.389c0.046 0.137 0.137 0.251 0.229 0.343s0.206 0.16 0.32 0.229c0.137 0.046 0.274 0.069 0.389 0.069 0.137 0 0.274-0.046 0.389-0.091 0.137-0.046 0.251-0.137 0.343-0.229l9.989-10.011z"></path>
</symbol>
<symbol id="icon-chevron-left" viewBox="0 0 32 32">
<path fill="#407bff" style="fill: var(--color3, #407bff)" d="M10.286 16.686c-0.183-0.183-0.297-0.434-0.297-0.709 0-0.251 0.114-0.503 0.297-0.686l9.989-10.011c0.091-0.091 0.206-0.183 0.343-0.229 0.114-0.046 0.251-0.091 0.389-0.091 0.114 0 0.251 0.023 0.389 0.069 0.114 0.069 0.229 0.137 0.32 0.229s0.183 0.206 0.229 0.343c0.046 0.114 0.069 0.251 0.069 0.389s-0.023 0.251-0.091 0.389c-0.046 0.114-0.137 0.229-0.229 0.32l-9.28 9.28 9.28 9.303c0.091 0.091 0.183 0.206 0.229 0.32 0.069 0.137 0.091 0.251 0.091 0.389s-0.023 0.274-0.069 0.389c-0.046 0.137-0.137 0.251-0.229 0.343s-0.206 0.16-0.32 0.229c-0.137 0.046-0.274 0.069-0.389 0.069-0.137 0-0.274-0.046-0.389-0.091-0.137-0.046-0.251-0.137-0.343-0.229l-9.989-10.011z"></path>
</symbol>
<symbol id="icon-chevron-down" viewBox="0 0 32 32">
<path fill="#407bff" style="fill: var(--color3, #407bff)" d="M16.7 21.7c-0.2 0.18-0.44 0.28-0.7 0.28-0.28 0-0.52-0.1-0.72-0.28l-10-10c-0.18-0.2-0.26-0.44-0.26-0.7s0.1-0.5 0.28-0.7c0.2-0.18 0.44-0.28 0.7-0.28s0.5 0.080 0.7 0.26l9.3 9.3 9.28-9.3c0.1-0.1 0.2-0.18 0.32-0.22 0.14-0.060 0.26-0.1 0.4-0.1s0.26 0.020 0.38 0.080c0.14 0.040 0.24 0.12 0.34 0.22s0.18 0.2 0.22 0.34c0.060 0.12 0.080 0.24 0.080 0.38s-0.040 0.26-0.1 0.4c-0.040 0.12-0.12 0.22-0.22 0.32l-10 10z"></path>
</symbol>
<symbol id="icon-upload" viewBox="0 0 32 32">
<path fill="none" stroke="#407bff" style="stroke: var(--color3, #407bff)" stroke-linejoin="round" stroke-linecap="round" stroke-miterlimit="4" stroke-width="2" d="M4 22v3c0 0.78 0.3 1.54 0.86 2.12 0.58 0.56 1.34 0.88 2.14 0.88h18c0.78 0 1.54-0.32 2.12-0.88 0.56-0.58 0.88-1.34 0.88-2.12v-3M10 10l6-6 6 6M16 4v18"></path>
</symbol>
<symbol id="icon-logout" viewBox="0 0 32 32">
<path fill="none" stroke="#407bff" style="stroke: var(--color3, #407bff)" stroke-linejoin="round" stroke-linecap="round" stroke-miterlimit="4" stroke-width="2" d="M21 12v-5c0-0.8-0.32-1.56-0.88-2.14-0.58-0.56-1.34-0.86-2.12-0.86h-8c-0.8 0-1.56 0.3-2.14 0.86-0.56 0.58-0.86 1.34-0.86 2.14v18c0 0.78 0.3 1.54 0.86 2.12 0.58 0.56 1.34 0.88 2.14 0.88h8c0.78 0 1.54-0.32 2.12-0.88 0.56-0.58 0.88-1.34 0.88-2.12v-5M25 20l4-4-4-4M29 16h-17"></path>
</symbol>
<symbol id="icon-setting" viewBox="0 0 32 32">
<path fill="none" stroke="#407bff" style="stroke: var(--color3, #407bff)" stroke-linejoin="round" stroke-linecap="butt" stroke-miterlimit="4" stroke-width="2" d="M14.26 4h3.46c0.74 0 1.36 0.52 1.48 1.24l0.28 1.72c0.080 0.48 0.42 0.9 0.86 1.16 0.1 0.040 0.2 0.1 0.3 0.16 0.42 0.26 0.96 0.34 1.44 0.16l1.62-0.6c0.32-0.12 0.7-0.14 1.020-0.020 0.34 0.12 0.62 0.36 0.8 0.68l1.72 2.98c0.18 0.32 0.24 0.68 0.18 1.020-0.060 0.36-0.24 0.66-0.52 0.9l-1.34 1.1c-0.38 0.32-0.58 0.82-0.58 1.32 0.020 0.12 0.020 0.22 0 0.34 0 0.5 0.2 1 0.58 1.32l1.34 1.1c0.56 0.48 0.72 1.28 0.34 1.92l-1.72 2.98c-0.18 0.32-0.46 0.54-0.8 0.66-0.32 0.12-0.7 0.12-1.020 0l-1.62-0.6c-0.48-0.18-1-0.1-1.44 0.16-0.1 0.060-0.2 0.12-0.3 0.16-0.44 0.26-0.78 0.68-0.86 1.16l-0.28 1.72c-0.12 0.72-0.74 1.26-1.48 1.26h-3.46c-0.74 0-1.36-0.54-1.48-1.26l-0.28-1.72c-0.080-0.48-0.42-0.9-0.86-1.16-0.1-0.040-0.2-0.1-0.3-0.16-0.42-0.26-0.96-0.34-1.44-0.16l-1.62 0.6c-0.32 0.12-0.7 0.12-1.020 0.020-0.34-0.12-0.62-0.36-0.8-0.68l-1.72-2.98c-0.18-0.32-0.24-0.68-0.18-1.020 0.060-0.36 0.24-0.66 0.52-0.9l1.34-1.1c0.38-0.32 0.58-0.82 0.58-1.32-0.020-0.12-0.020-0.22 0-0.34 0-0.5-0.2-1-0.58-1.32l-1.34-1.1c-0.28-0.24-0.46-0.54-0.52-0.9-0.060-0.34 0-0.7 0.18-1.020l1.72-2.98c0.18-0.32 0.46-0.56 0.8-0.66 0.32-0.12 0.7-0.12 1.020 0l1.62 0.6c0.48 0.18 1.020 0.1 1.44-0.16 0.1-0.060 0.2-0.12 0.3-0.16 0.44-0.26 0.78-0.68 0.86-1.16l0.28-1.72c0.12-0.72 0.74-1.24 1.48-1.24z"></path>
<path fill="none" stroke="#407bff" style="stroke: var(--color3, #407bff)" stroke-linejoin="round" stroke-linecap="butt" stroke-miterlimit="4" stroke-width="2" d="M18.82 18.82c-0.76 0.74-1.76 1.18-2.82 1.18-1.080 0-2.080-0.44-2.84-1.18-0.74-0.76-1.16-1.76-1.16-2.82 0-1.080 0.42-2.080 1.16-2.84 0.76-0.74 1.76-1.16 2.84-1.16 1.060 0 2.060 0.42 2.82 1.16 0.74 0.76 1.18 1.76 1.18 2.84 0 1.060-0.44 2.060-1.18 2.82z"></path>
</symbol>
<symbol id="icon-plus" viewBox="0 0 32 32">
<path fill="#407bff" style="fill: var(--color3, #407bff)" d="M16 7c0.253 0 0.507 0.093 0.707 0.28 0.187 0.2 0.293 0.453 0.293 0.72v7h7c0.253 0 0.507 0.093 0.707 0.28 0.187 0.2 0.293 0.453 0.293 0.72 0 0.253-0.107 0.507-0.293 0.707-0.2 0.187-0.453 0.293-0.707 0.293h-7v7c0 0.253-0.107 0.507-0.293 0.707-0.2 0.187-0.453 0.293-0.707 0.293-0.267 0-0.52-0.107-0.72-0.293-0.187-0.2-0.28-0.453-0.28-0.707v-7h-7c-0.267 0-0.52-0.107-0.72-0.293-0.187-0.2-0.28-0.453-0.28-0.707 0-0.267 0.093-0.52 0.28-0.72 0.2-0.187 0.453-0.28 0.72-0.28h7v-7c0-0.267 0.093-0.52 0.28-0.72 0.2-0.187 0.453-0.28 0.72-0.28z"></path>
</symbol>
<symbol id="icon-minus" viewBox="0 0 32 32">
<path fill="#407bff" style="fill: var(--color3, #407bff)" d="M7 16c0-0.267 0.093-0.52 0.28-0.72 0.2-0.187 0.453-0.28 0.72-0.28h16c0.253 0 0.507 0.093 0.707 0.28 0.187 0.2 0.293 0.453 0.293 0.72 0 0.253-0.107 0.507-0.293 0.707-0.2 0.187-0.453 0.293-0.707 0.293h-16c-0.267 0-0.52-0.107-0.72-0.293-0.187-0.2-0.28-0.453-0.28-0.707z"></path>
</symbol>
<symbol id="icon-x-close" viewBox="0 0 32 32">
<path fill="none" stroke="#407bff" style="stroke: var(--color3, #407bff)" stroke-linejoin="round" stroke-linecap="round" stroke-miterlimit="4" stroke-width="2" d="M8 24l16-16M8 8l16 16"></path>
</symbol>
<symbol id="icon-plus-circle" viewBox="0 0 32 32">
<path fill="none" stroke="#fff" style="stroke: var(--color4, #fff)" stroke-linejoin="round" stroke-linecap="round" stroke-miterlimit="4" stroke-width="2.6667" d="M16 12v8M20 16h-8M27.080 20.587c-0.6 1.453-1.493 2.773-2.6 3.893-1.12 1.107-2.44 2-3.893 2.6s-3.013 0.92-4.587 0.92c-1.587 0-3.147-0.32-4.6-0.92s-2.773-1.493-3.893-2.6c-1.107-1.12-2-2.44-2.6-3.893s-0.907-3.013-0.907-4.587c0-3.187 1.253-6.24 3.507-8.493s5.307-3.507 8.493-3.507c3.173 0 6.227 1.253 8.48 3.507s3.52 5.307 3.52 8.493c0 1.573-0.32 3.133-0.92 4.587z"></path>
</symbol>
<symbol id="icon-user" viewBox="0 0 32 32">
<path fill="none" stroke-linejoin="miter" stroke-linecap="butt" stroke-miterlimit="4" stroke-width="1.1429" stroke="#000" d="M31.429 16c0 8.521-6.908 15.429-15.429 15.429s-15.429-6.908-15.429-15.429c0-8.521 6.908-15.429 15.429-15.429s15.429 6.908 15.429 15.429z"/>
<path fill="none" stroke-linejoin="round" stroke-linecap="round" stroke-miterlimit="4" stroke-width="1.1429" stroke="#000" d="M20.001 9.436c0 1.088-0.422 2.132-1.172 2.901s-1.768 1.202-2.829 1.202c-1.061 0-2.079-0.432-2.829-1.202s-1.172-1.813-1.172-2.901c0-1.088 0.421-2.132 1.172-2.901s1.768-1.202 2.829-1.202c1.061 0 2.079 0.432 2.829 1.202s1.172 1.813 1.172 2.901zM8 24.881c0.034-2.153 0.892-4.205 2.389-5.715s3.512-2.356 5.611-2.356 4.115 0.846 5.611 2.356c1.497 1.51 2.355 3.563 2.389 5.715-2.51 1.18-5.239 1.789-8 1.785-2.855 0-5.564-0.639-8-1.785z"/>
</symbol>
<symbol id="icon-wrench-screwdriver" viewBox="0 0 32 32">
<path fill="none" stroke="#407bff" style="stroke: var(--color3, #407bff)" stroke-linejoin="round" stroke-linecap="round" stroke-miterlimit="4" stroke-width="1.6" d="M15.224 20.224l7.776 7.776c0.664 0.64 1.56 1 2.488 0.992s1.808-0.384 2.464-1.040c0.664-0.656 1.032-1.544 1.040-2.464 0.008-0.928-0.352-1.824-0.992-2.488l-7.84-7.84M13.352 15.472l2.328-1.92-5.68-5.68v-1.872l-5-3-2 2 3 5h1.872l5.48 5.472-9.12 7.504c-0.368 0.304-0.664 0.68-0.88 1.104-0.208 0.424-0.336 0.888-0.352 1.36-0.024 0.472 0.048 0.944 0.216 1.384 0.176 0.448 0.432 0.848 0.768 1.184s0.744 0.6 1.184 0.768c0.44 0.168 0.912 0.248 1.392 0.224 0.472-0.024 0.936-0.144 1.36-0.36s0.792-0.512 1.096-0.88l9.536-11.576c0.424-0.512 0.984-0.832 1.608-1.024 0.736-0.216 1.552-0.248 2.328-0.184 1.040 0.088 2.088-0.096 3.040-0.536 0.944-0.44 1.76-1.12 2.368-1.976s0.976-1.848 1.072-2.896c0.104-1.040-0.072-2.088-0.504-3.040l-4.368 4.368c-0.728-0.168-1.4-0.536-1.928-1.072-0.528-0.528-0.904-1.2-1.072-1.928l4.368-4.368c-0.952-0.432-2-0.608-3.040-0.504-1.040 0.096-2.040 0.472-2.896 1.072-0.856 0.608-1.536 1.424-1.976 2.376-0.44 0.944-0.624 1.992-0.536 3.040 0.128 1.432-0.088 3.016-1.2 3.928l-0.136 0.12M24.496 24.496l-3.496-3.496M6.496 25.496v0.008h-0.008v-0.008h0.008z"></path>
</symbol>
<symbol id="icon-presentation-bar" viewBox="0 0 32 32">
<path fill="none" stroke="#407bff" style="stroke: var(--color3, #407bff)" stroke-linejoin="round" stroke-linecap="round" stroke-miterlimit="4" stroke-width="1.6" d="M5 4v15c0 0.792 0.312 1.552 0.872 2.12 0.568 0.56 1.328 0.88 2.128 0.88h16c0.792 0 1.552-0.32 2.12-0.88 0.56-0.568 0.88-1.328 0.88-2.12v-15M29 4h-26M11 22l-1.336 4-0.664 2M21 22l1.328 4 0.672 2M22.328 26h-12.664M12 15v2M16 12v5M20 9v8"></path>
</symbol>
<symbol id="icon-calendar-days" viewBox="0 0 32 32">
<path fill="none" stroke="#407bff" style="stroke: var(--color3, #407bff)" stroke-linejoin="round" stroke-linecap="round" stroke-miterlimit="4" stroke-width="1.6" d="M9 4v3M23 4v3M4 10c0-0.8 0.312-1.56 0.872-2.128 0.568-0.56 1.328-0.872 2.128-0.872h18c0.792 0 1.552 0.312 2.12 0.872 0.56 0.568 0.88 1.328 0.88 2.128v15c0 0.792-0.32 1.552-0.88 2.12-0.568 0.56-1.328 0.88-2.12 0.88h-18c-0.8 0-1.56-0.32-2.128-0.88-0.56-0.568-0.872-1.328-0.872-2.12v-15zM4 25v-10c0-0.8 0.312-1.56 0.872-2.128 0.568-0.56 1.328-0.872 2.128-0.872h18c0.792 0 1.552 0.312 2.12 0.872 0.56 0.568 0.88 1.328 0.88 2.128v10M16.008 17v0.008h-0.008v-0.008h0.008zM16.008 20v0.008h-0.008v-0.008h0.008zM16.008 23v0.008h-0.008v-0.008h0.008zM13.008 20v0.008h-0.008v-0.008h0.008zM13.008 23v0.008h-0.008v-0.008h0.008zM10.008 20v0.008h-0.008v-0.008h0.008zM10.008 23v0.008h-0.008v-0.008h0.008zM19.008 17v0.008h-0.008v-0.008h0.008zM19.008 20v0.008h-0.008v-0.008h0.008zM19.008 23v0.008h-0.008v-0.008h0.008zM22.008 17v0.008h-0.008v-0.008h0.008zM22.008 20v0.008h-0.008v-0.008h0.008z"></path>
</symbol>
</defs>
</svg>