<svg width="28" height="28" viewBox="0 0 28 28" fill="none" xmlns="http://www.w3.org/2000/svg">
<g clip-path="url(#clip0_12934_8067)">
<circle cx="14" cy="14" r="13.5" stroke="#D5DFF5"/>
<path d="M17.5005 8.25637C17.5005 9.20842 17.1317 10.1215 16.4752 10.7947C15.8187 11.4679 14.9284 11.8461 14 11.8461C13.0716 11.8461 12.1813 11.4679 11.5248 10.7947C10.8683 10.1215 10.4995 9.20842 10.4995 8.25637C10.4995 7.30431 10.8683 6.39124 11.5248 5.71804C12.1813 5.04483 13.0716 4.66663 14 4.66663C14.9284 4.66663 15.8187 5.04483 16.4752 5.71804C17.1317 6.39124 17.5005 7.30431 17.5005 8.25637ZM7 21.771C7.03 19.8875 7.78069 18.0915 9.09018 16.7703C10.3997 15.4492 12.163 14.7088 14 14.7088C15.837 14.7088 17.6003 15.4492 18.9098 16.7703C20.2193 18.0915 20.97 19.8875 21 21.771C18.8039 22.8037 16.4159 23.3366 14 23.3333C11.5021 23.3333 9.13108 22.7742 7 21.771Z" stroke="#D5DFF5" stroke-linecap="round" stroke-linejoin="round"/>
</g>
<defs>
<clipPath id="clip0_12934_8067">
<rect width="28" height="28" fill="white"/>
</clipPath>
</defs>
</svg>
