<svg aria-hidden="true" style="position:absolute;width:0;height:0;overflow:hidden" xmlns="http://www.w3.org/2000/svg">
  <defs>
    <symbol id="icon-eye" viewBox="0 0 32 32">
      <path stroke-linejoin="round" stroke-linecap="round" stroke-width="1.333" d="M2.715 16.429a1.35 1.35 0 0 1 0-.852C4.564 10.013 9.814 6 16 6c6.184 0 11.431 4.009 13.284 9.571.093.276.093.575 0 .852C27.436 21.987 22.187 26 16 26c-6.184 0-11.432-4.009-13.285-9.571z"/>
      <path stroke-linejoin="round" stroke-linecap="round" stroke-width="1.333" d="M20 16a4.003 4.003 0 0 1-4 4 4.003 4.003 0 0 1-4-4 4.003 4.003 0 0 1 4-4 4.003 4.003 0 0 1 4 4z"/>
    </symbol>
    <symbol id="icon-eye-slash" viewBox="0 0 32 32">
      <path stroke-linejoin="round" stroke-linecap="round" stroke-width="1.333" d="M5.307 10.964A13.978 13.978 0 0 0 2.579 16C4.302 21.784 9.659 26 16 26c1.324 0 2.604-.184 3.817-.527M8.304 8.304A13.936 13.936 0 0 1 16 6c6.341 0 11.697 4.216 13.42 9.997a14.033 14.033 0 0 1-5.724 7.699M8.304 8.304 4 4m4.304 4.304 4.867 4.867m10.525 10.525L28 28m-4.304-4.304-4.867-4.867A3.996 3.996 0 0 0 20 16a4.001 4.001 0 0 0-4-4 4.017 4.017 0 0 0-2.829 1.172m5.657 5.656-5.655-5.655"/>
    </symbol>
    <symbol id="icon-cog-6-tooth" viewBox="0 0 32 32">
      <path stroke-linejoin="round" stroke-linecap="round" stroke-width="1.333" d="M12.792 5.253A1.5 1.5 0 0 1 14.272 4h3.457c.733 0 1.36.531 1.48 1.253l.284 1.708c.084.499.417.915.86 1.16.099.053.196.111.293.169.432.261.96.343 1.433.165l1.623-.608a1.498 1.498 0 0 1 1.826.654l1.728 2.996c.177.308.24.668.177 1.018s-.249.665-.523.89l-1.337 1.103c-.391.32-.584.817-.575 1.323.002.113.002.227 0 .34-.009.504.184 1 .573 1.32l1.34 1.104c.565.467.712 1.272.347 1.907l-1.731 2.996a1.499 1.499 0 0 1-1.826.655l-1.623-.608c-.473-.177-1-.096-1.435.165a8.597 8.597 0 0 1-.293.171c-.441.244-.775.66-.859 1.159l-.284 1.707a1.5 1.5 0 0 1-1.48 1.255h-3.459c-.733 0-1.36-.531-1.48-1.253l-.284-1.708c-.083-.499-.416-.915-.859-1.16a9.308 9.308 0 0 1-.293-.169c-.433-.261-.96-.343-1.435-.165l-1.623.608a1.5 1.5 0 0 1-1.825-.653L4.74 20.506a1.5 1.5 0 0 1 .347-1.908l1.339-1.103c.389-.32.583-.817.573-1.323a9.634 9.634 0 0 1 0-.34c.009-.504-.184-1-.573-1.32l-1.339-1.104a1.502 1.502 0 0 1-.347-1.907l1.729-2.996a1.497 1.497 0 0 1 1.826-.654l1.621.608c.475.177 1.001.096 1.435-.165.096-.059.195-.116.293-.171.443-.244.776-.66.859-1.159l.285-1.708z"/>
      <path stroke-linejoin="round" stroke-linecap="round" stroke-width="1.333" d="M20 16a4.003 4.003 0 0 1-4 4 4.003 4.003 0 0 1-4-4 4.003 4.003 0 0 1 4-4 4.003 4.003 0 0 1 4 4z"/>
    </symbol>
    <symbol id="icon-arrow-long-left" viewBox="0 0 32 32">
      <path d="M9.706 10.293a1.002 1.002 0 0 1 0 1.414L6.413 15H28a.997.997 0 0 1 1 1 1 1 0 0 1-1 1H6.413l3.293 3.293a1.002 1.002 0 0 1 .025 1.439.992.992 0 0 1-.725.293 1.001 1.001 0 0 1-.714-.318l-5-5a1.002 1.002 0 0 1 0-1.414l5-5a1.002 1.002 0 0 1 1.414 0z"/>
    </symbol>
    <symbol id="icon-plus-circle" viewBox="0 0 32 32">
      <path stroke-linejoin="round" stroke-linecap="round" stroke-width="2.667" d="M16 12v8m4-4h-8m16 0a12 12 0 1 1-24.003.002A12 12 0 0 1 28.002 16z"/>
    </symbol>
    <symbol id="icon-plus-small" viewBox="0 0 32 32">
      <path stroke-linejoin="round" stroke-linecap="round" stroke-width="2" d="M16 8v16m8-8H8"/>
    </symbol>
    <symbol id="icon-pencil-square" viewBox="0 0 32 32">
      <path stroke-linejoin="round" stroke-linecap="round" stroke-width="1.333" d="m22.483 5.983 2.249-2.251a2.5 2.5 0 0 1 3.536 3.536L14.109 21.427a6.002 6.002 0 0 1-2.529 1.507L8 24.001l1.067-3.58a5.992 5.992 0 0 1 1.507-2.529L22.483 5.984zm0 0L26 9.5m-2 9.167V25a3.004 3.004 0 0 1-3 3H7a3.004 3.004 0 0 1-3-3V11a3.004 3.004 0 0 1 3-3h6.333"/>
    </symbol>
    <symbol id="icon-trash" viewBox="0 0 32 32">
      <path stroke-linejoin="round" stroke-linecap="round" stroke-width="1.333" d="m19.653 12-.461 12m-6.384 0-.461-12m13.29-4.28c.456.069.909.143 1.363.221m-1.363-.221-1.424 18.511A3 3 0 0 1 21.221 29H10.778a2.996 2.996 0 0 1-2.992-2.769L6.362 7.72m19.275 0A63.917 63.917 0 0 0 21 7.191M6.363 7.72c-.456.068-.909.141-1.363.22m1.363-.22A63.917 63.917 0 0 1 11 7.191m10 0V5.97c0-1.573-1.213-2.885-2.787-2.935a69.515 69.515 0 0 0-4.427 0c-1.573.049-2.787 1.363-2.787 2.935v1.221m10.001 0a64.947 64.947 0 0 0-10 0"/>
    </symbol>
    <symbol id="icon-chevron-double-up" viewBox="0 0 32 32">
      <path d="M16.706 21.707a1.002 1.002 0 0 1-1.414 0l-10-10a.996.996 0 0 1 .025-1.388 1.002 1.002 0 0 1 1.388-.025l9.293 9.293 9.293-9.293a1.013 1.013 0 0 1 .714-.318.993.993 0 0 1 .725.293.992.992 0 0 1 .293.725 1.001 1.001 0 0 1-.318.714l-10 10z"/>
    </symbol>
    <symbol id="icon-arrow-right-on-rectangle" viewBox="0 0 32 32">
      <path stroke-linejoin="round" stroke-linecap="round" stroke-width="1.333" d="M21 12V7a3.004 3.004 0 0 0-3-3h-8a3.004 3.004 0 0 0-3 3v18a3.004 3.004 0 0 0 3 3h8a3.004 3.004 0 0 0 3-3v-5m4 0 4-4m0 0-4-4m4 4H12"/>
    </symbol>
    <symbol id="icon-arrow-up-tray" viewBox="0 0 32 32">
      <path stroke-linejoin="round" stroke-linecap="round" stroke-width="1.333" d="M4 22v3a3.004 3.004 0 0 0 3 3h18a3.004 3.004 0 0 0 3-3v-3M10 10l6-6m0 0 6 6m-6-6v18"/>
    </symbol>
    <symbol id="icon-minus-small" viewBox="0 0 32 32">
      <path d="M7 16a.997.997 0 0 1 1-1h16a.997.997 0 0 1 1 1 .997.997 0 0 1-1 1H8a.997.997 0 0 1-1-1z"/>
    </symbol>
    <symbol id="icon-calendar-days" viewBox="0 0 32 32">
      <path stroke-linejoin="round" stroke-linecap="round" stroke-width="1.6" d="M9 4v3m14-3v3M4 25V10a3.004 3.004 0 0 1 3-3h18a3.004 3.004 0 0 1 3 3v15M4 25a3.004 3.004 0 0 0 3 3h18a3.004 3.004 0 0 0 3-3M4 25V15a3.004 3.004 0 0 1 3-3h18a3.004 3.004 0 0 1 3 3v10m-12-8h.011v.011H16V17zm0 3h.011v.011H16V20zm0 3h.011v.011H16V23zm-3-3h.011v.011H13V20zm0 3h.011v.011H13V23zm-3-3h.011v.011H10V20zm0 3h.011v.011H10V23zm9-6h.011v.011H19V17zm0 3h.011v.011H19V20zm0 3h.011v.011H19V23zm3-6h.011v.011H22V17zm0 3h.011v.011H22V20z"/>
    </symbol>
    <symbol id="icon-presentation-chart-bar" viewBox="0 0 32 32">
      <path stroke-linejoin="round" stroke-linecap="round" stroke-width="1.6" d="M5 4v15a3.004 3.004 0 0 0 3 3h3M5 4H3m2 0h22M11 22h10m-10 0-1.333 4M27 4h2m-2 0v15a3.004 3.004 0 0 1-3 3h-3m0 0 1.333 4M9.667 26h12.667M9.667 26 9 28m13.333-2L23 28M12 15v2m4-5v5m4-8v8"/>
    </symbol>
    <symbol id="icon-wrench-screwdriver" viewBox="0 0 32 32">
      <path stroke-linejoin="round" stroke-linecap="round" stroke-width="1.6" d="M15.227 20.227 23 28a3.535 3.535 0 0 0 5.996-2.513 3.535 3.535 0 0 0-.995-2.488l-7.836-7.836m-4.938 5.064 3.328-4.04c.423-.512.987-.835 1.611-1.021.733-.219 1.551-.251 2.324-.187a6.006 6.006 0 0 0 6.486-5.404 6.013 6.013 0 0 0-.504-3.045l-4.368 4.369a4.01 4.01 0 0 1-3-3l4.368-4.368a6.008 6.008 0 0 0-7.912 2.943 6.01 6.01 0 0 0-.536 3.039c.121 1.435-.095 3.019-1.205 3.933l-.136.113m-.456 6.668L9.02 27.764a3.403 3.403 0 0 1-2.46 1.239A3.4 3.4 0 0 1 3 25.442a3.39 3.39 0 0 1 1.239-2.46l9.116-7.507-5.476-5.476H6l-3-5 2-2 5 3v1.879l5.68 5.68-2.327 1.916M24.5 24.5 21 21M6.489 25.5H6.5v.011h-.011V25.5z"/>
    </symbol>
    <symbol id="icon-user" viewBox="0 0 32 32">
      <path stroke-width="1.333" d="M31.333 16c0 8.468-6.865 15.333-15.333 15.333S.667 24.468.667 16 7.532.667 16 .667 31.333 7.532 31.333 16z"/>
      <path stroke-linejoin="round" stroke-linecap="round" stroke-width="1.333" d="M20.001 9.436c0 1.088-.421 2.132-1.172 2.901S17.061 13.539 16 13.539c-1.061 0-2.079-.432-2.829-1.202s-1.172-1.813-1.172-2.901c0-1.088.421-2.132 1.172-2.901S14.939 5.333 16 5.333c1.061 0 2.079.432 2.829 1.202s1.172 1.813 1.172 2.901zM8 24.881c.034-2.153.892-4.205 2.389-5.715S13.901 16.81 16 16.81c2.099 0 4.115.846 5.611 2.356s2.355 3.562 2.389 5.715a18.732 18.732 0 0 1-8 1.785c-2.855 0-5.564-.639-8-1.785z"/>
    </symbol>
    <symbol id="plus" viewBox="0 0 24 24">
      <path fill-rule="evenodd" clip-rule="evenodd" d="M12 5.25a.75.75 0 0 1 .75.75v5.25H18a.75.75 0 1 1 0 1.5h-5.25V18a.75.75 0 1 1-1.5 0v-5.25H6a.75.75 0 1 1 0-1.5h5.25V6a.75.75 0 0 1 .75-.75Z" fill="#407BFF"/>
    </symbol>
    <symbol id="minus" viewBox="0 0 24 24">
      <path fill-rule="evenodd" clip-rule="evenodd" d="M5.25 12a.75.75 0 0 1 .75-.75h12a.75.75 0 1 1 0 1.5H6a.75.75 0 0 1-.75-.75Z" fill="#407BFF"/>
    </symbol>
    <symbol id="icon-close-x" viewBox="0 0 32 32">
      <path stroke-linejoin="round" stroke-linecap="round" stroke-width="3.429" d="M2.286 29.714 29.715 2.285m-27.429.001 27.429 27.429"/>
    </symbol>
    <svg id="water-glass" viewBox="0 0 36 36" fill="none" xmlns="http://www.w3.org/2000/svg">
      <path d="M6.26 3.13 8.4 32.79v.08h18.412l2.139-29.646V3.13H6.26ZM26.057 32.04H9.162L7.558 9.824h.881l1.45 19.578c.01.103.055.199.13.27.075.07.173.11.275.11h.034a.399.399 0 0 0 .277-.14.41.41 0 0 0 .098-.298l-1.45-19.52H27.66l-1.604 22.215Zm1.66-23.046H9.19l-.318-4.328a.423.423 0 0 0-.137-.274.412.412 0 0 0-.284-.106.413.413 0 0 0-.276.145.425.425 0 0 0-.1.299l.319 4.27H7.5l-.364-5.043H28.08l-.364 5.037Z" fill="#407BFF"/>
      <path d="M12.78 13.932c.265 0 .525-.08.745-.23.221-.149.393-.362.495-.61a1.38 1.38 0 0 0-.291-1.485 1.324 1.324 0 0 0-1.463-.295 1.347 1.347 0 0 0-.603.502 1.376 1.376 0 0 0 .167 1.72c.252.255.593.398.95.398Zm0-1.898a.524.524 0 0 1 .488.331.543.543 0 0 1-.115.585.527.527 0 0 1-.903-.38.54.54 0 0 1 .155-.38c.1-.1.234-.156.374-.156ZM12.774 18.358c.003.269.085.53.235.752.15.222.36.394.607.494a1.325 1.325 0 0 0 1.457-.309 1.38 1.38 0 0 0 .28-1.484 1.357 1.357 0 0 0-.497-.607 1.329 1.329 0 0 0-1.697.182 1.363 1.363 0 0 0-.385.972Zm1.866 0a.542.542 0 0 1-.327.496.522.522 0 0 1-.577-.117.54.54 0 0 1 .374-.916c.14 0 .275.057.375.157.099.101.155.237.155.38ZM22.313 18.392c.265 0 .525-.08.745-.23.221-.149.393-.361.495-.61a1.38 1.38 0 0 0-.291-1.484 1.325 1.325 0 0 0-1.463-.295 1.347 1.347 0 0 0-.602.501 1.376 1.376 0 0 0 .166 1.72c.252.255.594.398.95.398Zm0-1.892a.524.524 0 0 1 .489.332.543.543 0 0 1-.117.586.527.527 0 0 1-.901-.387.54.54 0 0 1 .157-.376.525.525 0 0 1 .372-.155ZM17.637 15.825c.266 0 .525-.08.746-.23.22-.15.393-.362.494-.61a1.38 1.38 0 0 0-.29-1.485 1.324 1.324 0 0 0-1.463-.295 1.347 1.347 0 0 0-.603.501 1.376 1.376 0 0 0 .167 1.72c.252.255.593.399.95.399Zm0-1.899a.524.524 0 0 1 .489.332.544.544 0 0 1-.115.584.527.527 0 0 1-.576.117.532.532 0 0 1-.327-.496.542.542 0 0 1 .32-.522.522.522 0 0 1 .21-.043v.028ZM15.078 23.545c.005.221.075.436.2.617s.3.321.504.402a1.095 1.095 0 0 0 1.198-.262 1.13 1.13 0 0 0 .229-1.223 1.123 1.123 0 0 0-.41-.5 1.098 1.098 0 0 0-.612-.188 1.13 1.13 0 0 0-.786.348 1.163 1.163 0 0 0-.323.806Zm1.109-.3a.292.292 0 0 1 .273.185.304.304 0 0 1-.064.327.295.295 0 0 1-.505-.212c0-.08.031-.156.087-.212a.293.293 0 0 1 .209-.088ZM20.441 22.293c.228.008.453-.053.646-.177.193-.123.345-.302.436-.514a1.17 1.17 0 0 0-.234-1.274 1.133 1.133 0 0 0-1.254-.25c-.21.09-.387.243-.51.437a1.166 1.166 0 0 0 .147 1.436c.204.21.48.332.77.342Zm0-1.425c.079 0 .154.032.21.088a.303.303 0 0 1 0 .424.294.294 0 0 1-.42 0 .308.308 0 0 1-.091-.212.305.305 0 0 1 .089-.214.293.293 0 0 1 .212-.086ZM22.785 12.98c.225 0 .445-.068.632-.194.187-.127.333-.307.419-.518a1.17 1.17 0 0 0-.247-1.258 1.132 1.132 0 0 0-1.24-.25 1.142 1.142 0 0 0-.51.425 1.166 1.166 0 0 0 .141 1.457c.214.216.503.338.805.338Zm0-1.425a.294.294 0 0 1 .346.155.304.304 0 0 1-.087.373.294.294 0 0 1-.26.049.29.29 0 0 1-.258-.05.299.299 0 0 1-.118-.239.303.303 0 0 1 .117-.24.293.293 0 0 1 .26-.048ZM11.665 30.59a.41.41 0 0 0-.218.247.422.422 0 0 0 .03.33.42.42 0 0 0 .364.225.383.383 0 0 0 .182-.04 12.27 12.27 0 0 1 5.614-1.385c2.067.03 4.104.496 5.984 1.368a.405.405 0 0 0 .465-.061.416.416 0 0 0 .104-.464.425.425 0 0 0-.216-.231 15.517 15.517 0 0 0-6.337-1.443c-2.076.002-4.122.5-5.972 1.454Z" fill="#407BFF"/>
    </svg>
  </defs>
</svg>
